REM DIRINDEX 1\2,1\3,1\4
REM DIRNAME folder01,folder02,folder03,folder04
TITLE ""
FILE "DISC3Track08.mp3" MP3
  TRACK 01 AUDIO
    TITLE "0:"
    INDEX 01 00:00:00
  TRACK 02 AUDIO
    TITLE "4:cjc105_4639"
    INDEX 01 00:00:13
  TRACK 03 AUDIO
    TITLE "0:"
    INDEX 01 00:05:34
  TRACK 04 AUDIO
    TITLE "4:cjc105_4640"
    INDEX 01 00:06:02
  TRACK 05 AUDIO
    TITLE "0:"
    INDEX 01 00:10:04
  TRACK 06 AUDIO
    TITLE "4:cjc105_4641"
    INDEX 01 00:10:51
  TRACK 07 AUDIO
    TITLE "0:"
    INDEX 01 00:13:26
  TRACK 08 AUDIO
    TITLE "4:cjc105_4642"
    INDEX 01 00:13:53
  TRACK 09 AUDIO
    TITLE "0:"
    INDEX 01 00:15:30
  TRACK 10 AUDIO
    TITLE "2:cjc105_4643"
    INDEX 01 00:16:02
  TRACK 11 AUDIO
    TITLE "3:cjc105_4644"
    INDEX 01 00:17:65
  TRACK 12 AUDIO
    TITLE "0:"
    INDEX 01 00:19:26
  TRACK 13 AUDIO
    TITLE "2:cjc105_4645"
    INDEX 01 00:19:46
  TRACK 14 AUDIO
    TITLE "3:cjc105_4646"
    INDEX 01 00:20:73
  TRACK 15 AUDIO
    TITLE "0:"
    INDEX 01 00:22:46
  TRACK 16 AUDIO
    TITLE "2:cjc105_4647"
    INDEX 01 00:22:60
  TRACK 17 AUDIO
    TITLE "3:cjc105_4648"
    INDEX 01 00:24:31
  TRACK 18 AUDIO
    TITLE "0:"
    INDEX 01 00:26:13
  TRACK 19 AUDIO
    TITLE "2:cjc105_4649"
    INDEX 01 00:26:34
  TRACK 20 AUDIO
    TITLE "3:cjc105_4650"
    INDEX 01 00:27:67
  TRACK 21 AUDIO
    TITLE "0:"
    INDEX 01 00:29:33
  TRACK 22 AUDIO
    TITLE "2:cjc105_4651"
    INDEX 01 00:29:50
  TRACK 23 AUDIO
    TITLE "3:cjc105_4652"
    INDEX 01 00:31:22
  TRACK 24 AUDIO
    TITLE "0:"
    INDEX 01 00:33:22
  TRACK 25 AUDIO
    TITLE "2:cjc105_4653"
    INDEX 01 00:33:38
  TRACK 26 AUDIO
    TITLE "3:cjc105_4654"
    INDEX 01 00:36:03
  TRACK 27 AUDIO
    TITLE "0:"
    INDEX 01 00:38:18
  TRACK 28 AUDIO
    TITLE "2:cjc105_4655"
    INDEX 01 00:38:39
  TRACK 29 AUDIO
    TITLE "3:cjc105_4656"
    INDEX 01 00:40:11
  TRACK 30 AUDIO
    TITLE "0:"
    INDEX 01 00:41:16
  TRACK 31 AUDIO
    TITLE "2:cjc105_4657"
    INDEX 01 00:41:38
  TRACK 32 AUDIO
    TITLE "3:cjc105_4658"
    INDEX 01 00:42:43
  TRACK 33 AUDIO
    TITLE "0:"
    INDEX 01 00:43:66
  TRACK 34 AUDIO
    TITLE "2:cjc105_4659"
    INDEX 01 00:44:09
  TRACK 35 AUDIO
    TITLE "3:cjc105_4660"
    INDEX 01 00:45:71
  TRACK 36 AUDIO
    TITLE "0:"
    INDEX 01 00:47:46
  TRACK 37 AUDIO
    TITLE "2:cjc105_4661"
    INDEX 01 00:47:66
  TRACK 38 AUDIO
    TITLE "3:cjc105_4662"
    INDEX 01 00:49:51
  TRACK 39 AUDIO
    TITLE "0:"
    INDEX 01 00:51:38
  TRACK 40 AUDIO
    TITLE "2:cjc105_4663"
    INDEX 01 00:51:56
  TRACK 41 AUDIO
    TITLE "3:cjc105_4664"
    INDEX 01 00:54:05
  TRACK 42 AUDIO
    TITLE "0:"
    INDEX 01 00:56:18
  TRACK 43 AUDIO
    TITLE "2:cjc105_4665"
    INDEX 01 00:56:37
  TRACK 44 AUDIO
    TITLE "3:cjc105_4666"
    INDEX 01 00:57:66
  TRACK 45 AUDIO
    TITLE "0:"
    INDEX 01 00:59:61
  TRACK 46 AUDIO
    TITLE "2:cjc105_4667"
    INDEX 01 01:00:06
  TRACK 47 AUDIO
    TITLE "3:cjc105_4668"
    INDEX 01 01:01:38
  TRACK 48 AUDIO
    TITLE "0:"
    INDEX 01 01:02:44
  TRACK 49 AUDIO
    TITLE "2:cjc105_4669"
    INDEX 01 01:02:65
  TRACK 50 AUDIO
    TITLE "3:cjc105_4670"
    INDEX 01 01:04:13
  TRACK 51 AUDIO
    TITLE "0:"
    INDEX 01 01:05:36
  TRACK 52 AUDIO
    TITLE "2:cjc105_4671"
    INDEX 01 01:05:56
  TRACK 53 AUDIO
    TITLE "3:cjc105_4672"
    INDEX 01 01:07:00
  TRACK 54 AUDIO
    TITLE "0:"
    INDEX 01 01:08:46
  TRACK 55 AUDIO
    TITLE "2:cjc105_4673"
    INDEX 01 01:08:66
  TRACK 56 AUDIO
    TITLE "3:cjc105_4674"
    INDEX 01 01:10:24
  TRACK 57 AUDIO
    TITLE "0:"
    INDEX 01 01:11:54
  TRACK 58 AUDIO
    TITLE "2:cjc105_4675"
    INDEX 01 01:12:11
  TRACK 59 AUDIO
    TITLE "3:cjc105_4676"
    INDEX 01 01:13:42
  TRACK 60 AUDIO
    TITLE "0:"
    INDEX 01 01:14:55
  TRACK 61 AUDIO
    TITLE "2:cjc105_4677"
    INDEX 01 01:15:03
  TRACK 62 AUDIO
    TITLE "3:cjc105_4678"
    INDEX 01 01:16:44
  TRACK 63 AUDIO
    TITLE "0:"
    INDEX 01 01:17:55
  TRACK 64 AUDIO
    TITLE "2:cjc105_4679"
    INDEX 01 01:18:09
  TRACK 65 AUDIO
    TITLE "3:cjc105_4680"
    INDEX 01 01:19:30
  TRACK 66 AUDIO
    TITLE "0:"
    INDEX 01 01:20:71
  TRACK 67 AUDIO
    TITLE "2:cjc105_4681"
    INDEX 01 01:21:14
  TRACK 68 AUDIO
    TITLE "3:cjc105_4682"
    INDEX 01 01:22:33
  TRACK 69 AUDIO
    TITLE "0:"
    INDEX 01 01:23:63
  TRACK 70 AUDIO
    TITLE "2:cjc105_4683"
    INDEX 01 01:24:06
  TRACK 71 AUDIO
    TITLE "3:cjc105_4684"
    INDEX 01 01:25:64
  TRACK 72 AUDIO
    TITLE "0:"
    INDEX 01 01:27:14
  TRACK 73 AUDIO
    TITLE "2:cjc105_4685"
    INDEX 01 01:27:34
  TRACK 74 AUDIO
    TITLE "3:cjc105_4686"
    INDEX 01 01:28:71
  TRACK 75 AUDIO
    TITLE "0:"
    INDEX 01 01:30:30
  TRACK 76 AUDIO
    TITLE "2:cjc105_4687"
    INDEX 01 01:30:52
  TRACK 77 AUDIO
    TITLE "3:cjc105_4688"
    INDEX 01 01:32:06
  TRACK 78 AUDIO
    TITLE "0:"
    INDEX 01 01:33:46
